<svg width="24" height="24" viewBox="0 0 24 24" fill="none" xmlns="http://www.w3.org/2000/svg">
  <path fill-rule="evenodd" clip-rule="evenodd" d="M19 11V8C19 4.13401 15.866 1 12 1C8.13401 1 5 4.13401 5 8V11C5 14.3 2 15.1 2 17C2 18.7 5.9 20 12 20C18.1 20 22 18.7 22 17C22 15.1 19 14.3 19 11Z" stroke="#11142D" stroke-width="2" stroke-linecap="round" stroke-linejoin="round"/>
  <path d="M12 22C10.989 22 10.039 21.966 9.145 21.9C9.53617 23.1478 10.6923 23.997 12 23.997C13.3077 23.997 14.4638 23.1478 14.855 21.9C13.961 21.966 13.011 22 12 22Z" fill="#1B1D21"/>
</svg>
