<svg width="24" height="24" viewBox="0 0 24 24" fill="none" xmlns="http://www.w3.org/2000/svg">
  <path fill-rule="evenodd" clip-rule="evenodd"
        d="M16.8001 5.76001H11.0401C10.775 5.76001 10.5601 5.97491 10.5601 6.24001V10.08C10.5601 10.3451 10.775 10.56 11.0401 10.56H16.8001C17.0652 10.56 17.2801 10.3451 17.2801 10.08V6.24001C17.2801 5.97491 17.0652 5.76001 16.8001 5.76001ZM16.3201 9.60001H11.5201V6.72001H16.3201V9.60001Z"
        fill="currentColor"/>
  <path
    d="M11.5201 9.60001H11.2701C11.2701 9.73808 11.382 9.85001 11.5201 9.85001V9.60001ZM16.3201 9.60001V9.85001C16.4581 9.85001 16.5701 9.73808 16.5701 9.60001H16.3201ZM11.5201 6.72001V6.47001C11.382 6.47001 11.2701 6.58194 11.2701 6.72001H11.5201ZM16.3201 6.72001H16.5701C16.5701 6.58194 16.4581 6.47001 16.3201 6.47001V6.72001ZM11.0401 6.01001H16.8001V5.51001H11.0401V6.01001ZM10.8101 6.24001C10.8101 6.11298 10.913 6.01001 11.0401 6.01001V5.51001C10.6369 5.51001 10.3101 5.83684 10.3101 6.24001H10.8101ZM10.8101 10.08V6.24001H10.3101V10.08H10.8101ZM11.0401 10.31C10.913 10.31 10.8101 10.207 10.8101 10.08H10.3101C10.3101 10.4832 10.6369 10.81 11.0401 10.81V10.31ZM16.8001 10.31H11.0401V10.81H16.8001V10.31ZM17.0301 10.08C17.0301 10.207 16.9271 10.31 16.8001 10.31V10.81C17.2032 10.81 17.5301 10.4832 17.5301 10.08H17.0301ZM17.0301 6.24001V10.08H17.5301V6.24001H17.0301ZM16.8001 6.01001C16.9271 6.01001 17.0301 6.11298 17.0301 6.24001H17.5301C17.5301 5.83684 17.2032 5.51001 16.8001 5.51001V6.01001ZM11.5201 9.85001H16.3201V9.35001H11.5201V9.85001ZM11.2701 6.72001V9.60001H11.7701V6.72001H11.2701ZM16.3201 6.47001H11.5201V6.97001H16.3201V6.47001ZM16.5701 9.60001V6.72001H16.0701V9.60001H16.5701Z"
    fill="currentColor"/>
  <path fill-rule="evenodd" clip-rule="evenodd"
        d="M18.72 1.92004H5.27997C4.48468 1.92004 3.83997 2.56475 3.83997 3.36004V18.72C3.83997 20.5757 5.34429 22.08 7.19997 22.08H16.8C18.6556 22.08 20.16 20.5757 20.16 18.72V3.36004C20.16 2.56475 19.5153 1.92004 18.72 1.92004ZM7.67997 2.88004H5.27997C5.01487 2.88004 4.79997 3.09495 4.79997 3.36004V18.72C4.79997 20.0455 5.87448 21.12 7.19997 21.12H7.67997V2.88004ZM8.63997 2.88004V21.12H16.8C18.1255 21.12 19.2 20.0455 19.2 18.72V3.36004C19.2 3.09495 18.9851 2.88004 18.72 2.88004H8.63997Z"
        fill="currentColor"/>
  <path
    d="M7.67997 2.88004H7.92997C7.92997 2.74197 7.81804 2.63004 7.67997 2.63004V2.88004ZM7.67997 21.12V21.37C7.81804 21.37 7.92997 21.2581 7.92997 21.12H7.67997ZM8.63997 21.12H8.38997C8.38997 21.2581 8.50189 21.37 8.63997 21.37V21.12ZM8.63997 2.88004V2.63004C8.50189 2.63004 8.38997 2.74197 8.38997 2.88004H8.63997ZM5.27997 2.17004H18.72V1.67004H5.27997V2.17004ZM4.08997 3.36004C4.08997 2.70283 4.62275 2.17004 5.27997 2.17004V1.67004C4.3466 1.67004 3.58997 2.42668 3.58997 3.36004H4.08997ZM4.08997 18.72V3.36004H3.58997V18.72H4.08997ZM7.19997 21.83C5.48236 21.83 4.08997 20.4376 4.08997 18.72H3.58997C3.58997 20.7138 5.20622 22.33 7.19997 22.33V21.83ZM16.8 21.83H7.19997V22.33H16.8V21.83ZM19.91 18.72C19.91 20.4376 18.5176 21.83 16.8 21.83V22.33C18.7937 22.33 20.41 20.7138 20.41 18.72H19.91ZM19.91 3.36004V18.72H20.41V3.36004H19.91ZM18.72 2.17004C19.3772 2.17004 19.91 2.70283 19.91 3.36004H20.41C20.41 2.42668 19.6533 1.67004 18.72 1.67004V2.17004ZM5.27997 3.13004H7.67997V2.63004H5.27997V3.13004ZM5.04997 3.36004C5.04997 3.23302 5.15294 3.13004 5.27997 3.13004V2.63004C4.8768 2.63004 4.54997 2.95688 4.54997 3.36004H5.04997ZM5.04997 18.72V3.36004H4.54997V18.72H5.04997ZM7.19997 20.87C6.01255 20.87 5.04997 19.9075 5.04997 18.72H4.54997C4.54997 20.1836 5.73641 21.37 7.19997 21.37V20.87ZM7.67997 20.87H7.19997V21.37H7.67997V20.87ZM7.42997 2.88004V21.12H7.92997V2.88004H7.42997ZM8.88997 21.12V2.88004H8.38997V21.12H8.88997ZM16.8 20.87H8.63997V21.37H16.8V20.87ZM18.95 18.72C18.95 19.9075 17.9874 20.87 16.8 20.87V21.37C18.2635 21.37 19.45 20.1836 19.45 18.72H18.95ZM18.95 3.36004V18.72H19.45V3.36004H18.95ZM18.72 3.13004C18.847 3.13004 18.95 3.23302 18.95 3.36004H19.45C19.45 2.95688 19.1231 2.63004 18.72 2.63004V3.13004ZM8.63997 3.13004H18.72V2.63004H8.63997V3.13004Z"
    fill="currentColor"/>
</svg>
