<svg xmlns="http://www.w3.org/2000/svg" height="352.5691699604743"
     viewBox="100, 100, 200, 150">
  <g>
    <path id="path0"
          d="M202.626 108.463 C 201.385 110.074,183.218 172.981,183.747 173.836 C 184.664 175.320,195.338 178.201,196.710 177.336 C 198.037 176.499,216.766 114.541,216.385 112.253 C 216.275 111.598,214.374 110.485,212.134 109.766 C 205.421 107.610,203.486 107.345,202.626 108.463 M141.830 123.421 C 132.736 128.657,120.926 135.451,115.584 138.519 C 105.409 144.363,104.960 144.917,108.738 146.979 C 110.019 147.678,115.603 150.872,121.146 154.076 L 131.225 159.901 131.225 181.454 L 131.225 203.006 133.794 204.544 C 138.815 207.550,170.569 227.014,181.818 233.981 C 185.514 236.270,191.135 239.725,194.310 241.659 L 200.082 245.176 234.428 224.054 L 268.775 202.932 268.775 181.407 L 268.775 159.882 281.225 152.779 C 288.073 148.873,293.676 145.266,293.676 144.765 C 293.676 144.264,289.763 141.596,284.980 138.837 C 250.941 119.201,241.542 113.960,240.980 114.308 C 239.731 115.080,233.918 125.723,234.358 126.434 C 234.603 126.832,240.224 130.261,246.849 134.055 C 253.473 137.848,260.279 141.824,261.972 142.890 L 265.050 144.828 258.810 148.408 C 245.132 156.255,233.992 162.967,233.992 163.360 C 233.992 164.262,239.646 173.819,240.694 174.689 C 241.578 175.423,242.953 174.947,247.327 172.392 C 250.362 170.620,253.050 169.170,253.300 169.170 C 253.550 169.170,253.740 174.951,253.721 182.016 L 253.687 194.862 226.783 211.318 L 199.879 227.775 194.999 224.661 C 192.315 222.948,185.494 218.711,179.842 215.244 C 174.190 211.778,164.407 205.746,158.103 201.839 L 146.640 194.736 146.423 181.953 C 146.304 174.922,146.419 169.170,146.680 169.170 C 146.941 169.170,149.638 170.620,152.673 172.392 C 159.138 176.168,159.135 176.169,163.394 168.553 L 166.256 163.435 164.368 162.011 C 163.329 161.227,156.365 157.100,148.893 152.840 C 141.421 148.580,135.440 144.880,135.602 144.617 C 135.892 144.148,145.759 138.274,158.690 130.871 C 162.273 128.820,165.417 126.799,165.675 126.381 C 166.131 125.644,160.319 115.111,159.011 114.302 C 158.655 114.082,150.923 118.185,141.830 123.421 "
          stroke="none" fill="white" fill-rule="evenodd"/>
  </g>
</svg>
